<svg xmlns="http://www.w3.org/2000/svg" viewBox="0 0 668.03 40"><title>ec_line_bk</title><g id="line"><g id="Layer_2" data-name="Layer 2"><path d="M36.31,0V.06c0,.83,0,1.65.07,2.47s.06,1.77.06,2.66a7.26,7.26,0,0,0,.06,1.14v3c0,.89,0,1.71-.06,2.59-.06,1.14-.13,2.22-.25,3.29a33.67,33.67,0,0,1-1.27,6.27,30.86,30.86,0,0,1-2.15,5.19,27.67,27.67,0,0,1-2.53,3.92c-.57.69-1.14,1.39-1.77,2a21.41,21.41,0,0,1-1.65,1.65A29.87,29.87,0,0,1,21.7,38c-1.14.64-2.28,1.2-3.35,1.84a.68.68,0,0,1-.83,0,37.76,37.76,0,0,1-4.36-2.53c-.82-.57-1.65-1.21-2.4-1.84a19.57,19.57,0,0,1-2.09-2,22.79,22.79,0,0,1-2.53-3,27.41,27.41,0,0,1-2.6-4.42,29.48,29.48,0,0,1-1.83-5c-.32-1.14-.57-2.34-.82-3.48C.7,16.7.57,15.75.44,14.87s-.25-2-.31-3.1a19.67,19.67,0,0,1-.07-2C.06,8.54,0,7.28,0,6.07S0,3.48.06,2.21a2.13,2.13,0,0,1,.07-.63c0-.12.12-.25.25-.38A2.85,2.85,0,0,1,1.2.13.46.46,0,0,1,1.46,0H36.31Zm-35,1.58v1c0,.7,0,1.4-.06,2,0,1,0,1.9-.07,2.91V8.79c0,1,.07,1.9.07,2.91l.19,2.66c.12,1.2.31,2.47.5,3.67a31.64,31.64,0,0,0,2,6.71,26.6,26.6,0,0,0,2,3.79,25.51,25.51,0,0,0,2.91,3.86c.64.63,1.27,1.27,2,1.84s1.51,1.26,2.34,1.83a24.83,24.83,0,0,0,4.36,2.53.68.68,0,0,0,.7,0,32.89,32.89,0,0,0,4.55-2.65,22,22,0,0,0,3.17-2.66c.57-.57,1.07-1.14,1.58-1.71s1.07-1.33,1.58-2a27.74,27.74,0,0,0,2.59-4.62,27.11,27.11,0,0,0,1.52-4.56,35.39,35.39,0,0,0,1-5.69c.13-1.27.26-2.6.32-3.86.06-1,.06-1.9.06-2.85,0-1.33,0-2.59-.06-3.92V1.52C23.6,1.58,12.53,1.58,1.33,1.58Z"/><path d="M12.27,6a9.54,9.54,0,0,0,.38,2.34,9.82,9.82,0,0,0,2,3.86c1.21,1.39,2.35,2.85,3.55,4.24l3.22,3.8c1.4,1.64,2.79,3.22,4.18,4.87.32.31.57.69.89,1,.06.06.06.13,0,.25s-.38.32-.57.13c-1.71-1.77-3.48-3.48-5.19-5.19l-1.9-1.9c-1.27-1.26-2.53-2.46-3.86-3.67-1-.95-2.09-1.83-3.16-2.72a9,9,0,0,0-2.34-1.39,7.23,7.23,0,0,0-2-.38,3,3,0,0,1-.7-.06A14.93,14.93,0,0,0,12.27,6ZM8.48,10.69v.07c.12.06.25.06.38.12a10.57,10.57,0,0,1,1.45.63,17,17,0,0,1,3,2.22c1.58,1.39,3.1,2.85,4.62,4.36,1.07,1.08,2.09,2.16,3.16,3.23l1.33,1.33c1,1.07,2.09,2.15,3.1,3.16a.06.06,0,0,1,.06.07.23.23,0,0,0-.06-.19c-.95-1.08-1.9-2.09-2.85-3.17s-2-2.21-3-3.29c-1.58-1.71-3.1-3.41-4.68-5.06A31.17,31.17,0,0,0,11.83,11a5.71,5.71,0,0,0-1.9-1.08.42.42,0,0,0-.38,0,3.59,3.59,0,0,0-.82.45A.64.64,0,0,1,8.48,10.69Z"/><path d="M27.9,10.57a2.86,2.86,0,0,0,.06.31c0,.32-.12.44-.38.38a2.74,2.74,0,0,1-1-.38A8.11,8.11,0,0,1,24,8.35a2,2,0,0,1-.26-.63c-.12-.32,0-.51.38-.51h.13a1.83,1.83,0,0,1,1.39-1.77c0,.13,0,.19.07.25a.52.52,0,0,0,.06.26,2.77,2.77,0,0,1,.13-.45A3,3,0,0,1,27.2,3.8a1.68,1.68,0,0,1,.38-.19,6.73,6.73,0,0,0,.57,2.72A1.61,1.61,0,0,0,28.41,6c.06-.07.12-.13.19-.13s.12.13.12.19a5.65,5.65,0,0,1,.38,2.34,3.43,3.43,0,0,1,.45-.51.25.25,0,0,1,.06.19,9,9,0,0,1,0,1.27,1.44,1.44,0,0,1-1,1.14A2.4,2.4,0,0,0,27.9,10.57Zm-2.21-1.4c0-.06,0-.12.06-.12A.21.21,0,0,1,25.88,9a3.75,3.75,0,0,0,1.26-1,1.77,1.77,0,0,0,.51-1.64c-.13-.57-.32-1.14-.45-1.71,0-.06-.06-.19-.06-.25a.2.2,0,0,1-.13.06,3.63,3.63,0,0,0-.88,1.27,2,2,0,0,0-.06,1.71.39.39,0,0,1,.06.25c.06.31-.25.69-.51.63V8.22a.66.66,0,0,0,0-.82,2,2,0,0,1-.25-1.33V6a1.46,1.46,0,0,0-.76,1.39,2.44,2.44,0,0,0,.63,1.26A4,4,0,0,0,27.08,10,1.72,1.72,0,0,0,29,9.3a1,1,0,0,0,.12-.57c-.31.19-.57.44-.88.63a.83.83,0,0,1-.95-.06h0a.25.25,0,0,0,.19-.06,1.28,1.28,0,0,0,1.07-1,3.28,3.28,0,0,0-.19-1.9,3.34,3.34,0,0,1-.88,1.77A3,3,0,0,1,25.69,9.17Z"/><path d="M6.26,10.69c-.5,0-.76-.25-.63-.63a6.72,6.72,0,0,1,.44-1A12.5,12.5,0,0,1,8.54,6.45a15.07,15.07,0,0,1,2.28-1.52c.19-.06.38-.19.63-.25s.63.13.57.51a2.47,2.47,0,0,1-.38.95,13.68,13.68,0,0,1-2.4,2.65A8.5,8.5,0,0,1,6.9,10.38,4.66,4.66,0,0,1,6.26,10.69Zm2.85-2.4h0c.06,0,.13,0,.13-.07A14.19,14.19,0,0,0,11,6.14a2,2,0,0,0,.31-.64.39.39,0,0,0-.06-.25.2.2,0,0,0-.25,0,6.72,6.72,0,0,0-.95.44,8.31,8.31,0,0,0-.82.57c-.19.19-.38.38-.26.64A1.55,1.55,0,0,1,9.11,8.29Z"/><path d="M22.21,8.48a5.88,5.88,0,0,0,2,2.78l-.7.51c-.88.76-1.77,1.45-2.59,2.21s-1.45,1.46-2.21,2.22c-.13.12-.19.12-.32,0a1.27,1.27,0,0,0-.25-.32c-.07-.06-.07-.13,0-.25l1.77-2a9.15,9.15,0,0,0,2-3.36,12,12,0,0,0,.19-1.58V8.48Z"/><path d="M11.89,23.28h0c-.38-.31-.38-.31-.06-.63,1.2-1.33,2.47-2.66,3.67-4,.25-.25.51-.57.76-.82.06-.13.13-.13.25,0a1.48,1.48,0,0,0,.32.25c.13.07.13.13,0,.26-.51.5-1,1-1.52,1.58-1.08,1.14-2.21,2.28-3.29,3.35C12,23.22,12,23.22,11.89,23.28Z"/><path d="M19.36,17.21c-.06-.06-.06-.13-.13-.13s-.06-.19,0-.31l1.58-1.4a29.27,29.27,0,0,1,2.72-2.08,8.06,8.06,0,0,1,2.16-.95h.12l1.14.38c-.06,0-.13.06-.25.06a6.75,6.75,0,0,0-2.66.76,12.11,12.11,0,0,0-2.78,1.9c-.64.57-1.27,1.14-1.9,1.64C19.42,17.21,19.36,17.21,19.36,17.21Z"/><path d="M23.35,7.91c-.38.31-.19.63,0,.95a4.51,4.51,0,0,0,1.26,1.45c.51.45,1.14.82,1.71,1.27.06.06.13.06.25.12.32.13.57.13.76-.12.06-.07.06-.07.19-.13a4.11,4.11,0,0,1,.32.76c.06.13-.07.25-.26.32a1.24,1.24,0,0,1-.5-.07,7.82,7.82,0,0,1-3.17-2.15,5,5,0,0,1-1.26-1.77,1.29,1.29,0,0,1-.13-.44c-.06-.19.07-.26.26-.32S23.16,7.78,23.35,7.91Z"/><path d="M11.51,24.55l-.25.25c-1,.95-2,1.9-3,2.91-.19.19-.32.13-.51,0a.34.34,0,0,1-.06-.51l2.91-3.1c.19-.19.19-.19.32,0A4.25,4.25,0,0,1,11.51,24.55Z"/><path d="M17.71,18.79c-.44.44-.88.82-1.26,1.27-.63.56-1.2,1.13-1.84,1.77S13.35,23,12.78,23.6c-.25.25-.25.25-.51-.07.26-.25.51-.56.83-.82.63-.57,1.26-1.2,1.83-1.77.82-.76,1.58-1.52,2.4-2.28.07-.06.13-.06.26,0C17.52,18.66,17.59,18.73,17.71,18.79Z"/><path d="M12.65,24.17c0,.06,0,.06-.06.06-.32.38-.44.38-.89.13a3.26,3.26,0,0,1-.82-.76c-.25-.32-.25-.38.07-.7.06,0,.06-.06.12-.06h.06A3.92,3.92,0,0,0,12.65,24.17Z"/><path d="M27.2,26.64c.38.18.45.31.26.63a1.87,1.87,0,0,1-.51.5c-.38.19-.44.13-.63-.31A1,1,0,0,0,27.2,26.64Z"/><path d="M26.7,26.32c.31.13.31.25.19.5a1.54,1.54,0,0,1-.38.32c-.25.13-.32.06-.44-.19C26.32,26.82,26.64,26.7,26.7,26.32Z"/></g><g id="Layer_3" data-name="Layer 3"><path d="M201,5.82c.06.89.25,1.58.25,1.77s-.13.44-.32.44-.44-.25-.82-1.13c-1-2.41-4.36-4.43-7.65-4.43-5.45,0-8.55,3.35-8.55,9.17a9.33,9.33,0,0,0,9.18,9.62c3.16,0,6.58-1.77,7.53-4,.12-.31.25-.44.44-.44s.19.06.19.32c-.19,1.13-.25,1.45-.51,2.53-.69,1.26-4.87,2.46-8.41,2.46-6.58,0-10.88-3.92-10.88-9.93A10.4,10.4,0,0,1,192.27,1.52a14.4,14.4,0,0,1,6.95,1.77,1.77,1.77,0,0,0,.45.13,1,1,0,0,0,.38-.07,1.09,1.09,0,0,1,.44-.06c.19,0,.25.06.25.32Z"/><path d="M213.52,22.14c-6.51,0-10.88-4.05-10.88-10.06,0-6.2,4.68-10.56,11.26-10.56,6.2,0,10.44,4.17,10.44,10.37C224.28,17.9,220.17,22.14,213.52,22.14Zm.7-.95c4.81,0,7.65-3,7.65-8.22,0-5.82-4.17-10.63-9.17-10.63-4.43,0-7.72,3.48-7.72,8.23C204.92,16.58,209,21.19,214.22,21.19Z"/><path d="M229.53,1.9c1.39,0,2.53-.07,3-.07s.45.13.45.32-.13.25-.45.32l-.5.12c-1.27.26-1.33.7-1.46,6.2-.06,3-.25,6-.25,9.3,0,1.9.06,2.09.69,2.34a9.42,9.42,0,0,0,2.85.32c3.35,0,6.26-.88,7-2,.19-.32.25-.32.38-.32s.25.06.25.32a1.47,1.47,0,0,1-.19.57,4.48,4.48,0,0,1-1.39,2.08,3.25,3.25,0,0,1-2.28.83c-2.46,0-5.82-.32-7-.32-.88,0-3.54.06-4.17.06-.26,0-.51-.12-.51-.25s.19-.32.76-.44c.95-.19,1.33-.76,1.39-2.22.25-5.06.38-11.2.38-13.73,0-1.64-.44-2.4-1.52-2.53s-1.33-.38-1.33-.5.19-.26.7-.26Z"/><path d="M246.23,1.9c1.39,0,2.53-.07,3-.07s.44.13.44.32-.13.25-.44.32l-.57.12c-1.27.26-1.33.7-1.46,6.2-.06,3-.25,6-.25,9.3,0,1.9.06,2.09.69,2.34a9.42,9.42,0,0,0,2.85.32c3.35,0,6.26-.88,7-2,.19-.32.25-.32.38-.32s.25.06.25.32a1.47,1.47,0,0,1-.19.57,4.48,4.48,0,0,1-1.39,2.08,3.25,3.25,0,0,1-2.28.83c-2.46,0-5.82-.32-7-.32-.89,0-3.54.06-4.17.06-.26,0-.51-.12-.51-.25s.19-.32.76-.44c1-.19,1.33-.76,1.39-2.22.25-5.06.38-11.2.38-13.73,0-1.64-.44-2.4-1.52-2.53s-1.33-.38-1.33-.5.19-.26.7-.26Z"/><path d="M263.63,1.77c3.23,0,6.77-.13,8.22-.25h.64c.5,0,.63.06.63.44a5.33,5.33,0,0,1-.06,1l-.13,1.46c-.13,1-.19,1.14-.51,1.14s-.25-.07-.25-.51c0-1.71-.57-2.09-2.85-2.28s-2.27-.12-2.46-.12c-2.41,0-2.66.06-3,.44s-.25.63-.31,1.58c0,1.77-.07,3.54-.07,5.32,0,.5.57.82,1.46.82,1.2,0,2.47-.06,3.67-.06A2.35,2.35,0,0,0,271,8.92a.27.27,0,0,1,.26-.25c.25,0,.37.25.37.82,0,.82-.31,1.64-.31,2.53,0,.7.19,1.84.19,2.34,0,.13-.13.19-.25.19s-.38-.19-.45-.69c-.31-1.71-.63-1.84-5.31-1.84-1.33,0-1.71.06-1.9.25s-.19.51-.19,1.71v3.48c.06,2.91.06,3,1.9,3,1,0,2-.07,3.1-.13,2.72-.25,4.93-1,5.88-2.47.07-.06.07-.12.13-.12s.25.12.25.25a1.21,1.21,0,0,1-.13.63,6.57,6.57,0,0,1-1.83,2.66,2.83,2.83,0,0,1-1.9.7c-.25,0-.44,0-1.52-.07-2.53-.19-4.49-.31-6.2-.31s-2.84.25-3.48.25-.76-.06-.76-.32.83-.57,1.14-.63c.83-.25,1-.57,1-1.58.12-2,.19-3.92.19-5.88V4.3A2,2,0,0,0,260.59,3a1.65,1.65,0,0,0-.76-.51l-.95-.19a.28.28,0,0,1-.25-.25c0-.19.13-.32,1.33-.32Z"/><path d="M296,5.19l.25,1.39a4.47,4.47,0,0,1,.07.82c0,.32-.07.44-.32.44s-.19-.06-.32-.18l-.95-1.59c-1.2-2-4.8-3.73-7.53-3.73-5.12,0-8.54,3.54-8.54,8.86,0,5.63,3.8,10,8.67,10,3.48,0,6-1.58,6.2-3.79l.19-2.47v-1c0-1.39-.19-1.65-1.45-1.84-1-.19-1.27-.31-1.27-.57a.25.25,0,0,1,.06-.19c.07-.06.13-.12.19-.12h1.65l1.2.06h.57l.95-.06h1.58a.3.3,0,0,1,.25.12c0,.07.07.13.07.19s-.13.32-.64.38c-.88.26-1,.64-1,3.29v3.67c0,.45-.06.51-.44.57s-.57.13-1.33.57a16.43,16.43,0,0,1-7.59,2c-6.26,0-10.25-3.93-10.25-10.06,0-6.39,4.37-10.57,11.07-10.57a13.32,13.32,0,0,1,7,1.71.62.62,0,0,0,.38.13.66.66,0,0,0,.44-.13c.19-.06.26-.13.32-.13a.29.29,0,0,1,.25.32v.44a2.65,2.65,0,0,0,.07.51Z"/><path d="M303.3,1.77c3.22,0,6.77-.13,8.22-.25h.63c.51,0,.64.06.64.44a4.58,4.58,0,0,1-.07,1l-.12,1.46c-.13,1-.19,1.14-.51,1.14s-.25-.07-.25-.51c0-1.71-.57-2.09-2.85-2.28s-2.28-.12-2.47-.12c-2.4,0-2.65.06-3,.44s-.25.63-.32,1.58c0,1.77-.06,3.54-.06,5.32,0,.5.57.82,1.46.82,1.2,0,2.46-.06,3.67-.06a2.35,2.35,0,0,0,2.4-1.84.27.27,0,0,1,.25-.25c.26,0,.38.25.38.82,0,.82-.31,1.64-.31,2.53,0,.7.19,1.84.19,2.34,0,.13-.13.19-.26.19s-.38-.19-.44-.69c-.32-1.71-.63-1.84-5.31-1.84-1.33,0-1.71.06-1.9.25s-.19.51-.19,1.71v3.48c.06,2.91.06,3,1.9,3,1,0,2-.07,3.1-.13,2.72-.25,4.93-1,5.88-2.47.06-.06.06-.12.13-.12s.25.12.25.25a1.21,1.21,0,0,1-.13.63,6.67,6.67,0,0,1-1.83,2.66,2.83,2.83,0,0,1-1.9.7c-.25,0-.44,0-1.52-.07-2.53-.19-4.49-.31-6.2-.31s-2.85.25-3.48.25-.76-.06-.76-.32.83-.57,1.14-.63c.82-.25.95-.57,1-1.58q.19-2.94.19-5.88V4.3A2,2,0,0,0,300.26,3a1.7,1.7,0,0,0-.76-.51l-.95-.19a.28.28,0,0,1-.25-.25c0-.19.13-.32,1.33-.32Z"/><path d="M335.56,22.14c-6.51,0-10.88-4.05-10.88-10.06,0-6.2,4.68-10.56,11.26-10.56,6.2,0,10.44,4.17,10.44,10.37C346.32,17.9,342.21,22.14,335.56,22.14Zm.7-.95c4.81,0,7.65-3,7.65-8.22,0-5.82-4.17-10.63-9.17-10.63-4.43,0-7.72,3.48-7.72,8.23C327,16.58,331,21.19,336.26,21.19Z"/><path d="M352.2,4.87v5.44c0,.19.07.32.38.32h1.52c3.86,0,5.06-.25,5.38-1.2l.25-.76c.06-.13.13-.19.25-.19s.26.25.26.69v.38a3.1,3.1,0,0,1-.13.7l-.19.88.13,1.21.12,1.14v.31c0,.38-.06.57-.25.57s-.51-.5-.63-1.14c-.19-1.07-1-1.33-4-1.33h-2.21c-.51,0-.76.07-.82.19s-.19.57-.19,2.91v3.29c0,1.59.57,2.28,2,2.53l.5.07.51.06a.34.34,0,0,1,.19.32c0,.25-.25.31-1.08.31a4.34,4.34,0,0,1-.88-.06h-2l-1.39.06a10.14,10.14,0,0,0-1.33.13h-.38c-.38,0-.57-.13-.57-.32s.07-.25.19-.25l1.14-.32c.95-.31,1.14-1.32,1.14-6.64V12.46c0-1.58,0-3.54-.06-5.94,0-3-.38-3.86-1.84-4.12-.88-.12-1.07-.25-1.07-.5s.44-.38,1.39-.38h2.09l4-.06a34.91,34.91,0,0,0,4-.19c.88-.07,1.45-.07,1.71-.07a2.54,2.54,0,0,0,.82-.06h.32c.19,0,.25.06.25.19v.19A8,8,0,0,0,361.38,3a16.35,16.35,0,0,0-.13,1.64c0,.44-.06.63-.32.63s-.38-.12-.38-.82V4.43c0-1.39-.63-1.65-4.11-1.71h-2.66c-1.32,0-1.58.19-1.64,1.14Z"/><path d="M369.28,21.83c-.25,0-.31-.07-.31-.26s.12-.31.57-.31c.63-.07,1.39-.89,2-2,2.59-5.44,5.25-11,7.91-16.39.63-1.39.88-1.71,1-1.71s.32.32.88,1.84c.38.88,4.56,10.82,6.71,15.94a3.14,3.14,0,0,0,2.66,2.21c.57.13.76.26.76.45s-.38.38-.83.38a31.57,31.57,0,0,0-3.41-.26c-1.14,0-2,.13-2.53.13-.32,0-.51-.13-.51-.32s.25-.38.7-.44.95-.38.95-.82a28,28,0,0,0-2-5.89c-.19-.31-.25-.44-.82-.44l-7.34.07c-.38,0-.51,0-.57.25-1.39,3.1-2.34,4.87-2.34,5.38,0,.82.44,1.13,2,1.51.25.07.32.13.32.32s-.19.32-.57.32c-.7,0-1.58-.07-2.41-.07A25.05,25.05,0,0,0,369.28,21.83Zm13.23-10.44-2.15-4.87-.57-1c-.07-.19-.19-.31-.26-.31s-.31.31-.69,1.14l-2.66,5.75a3.4,3.4,0,0,0-.13.38c0,.26.26.32.57.32h5.7c.44,0,.57-.06.57-.44v-.19Z"/><path d="M402.63,11.64a12.06,12.06,0,0,0,.82,1.33c.44.76.82,1.33,1.07,1.71l1.71,2.47c2.28,3.28,3.23,4.23,4.3,4.23h.32c.19,0,.32.07.32.19,0,.38-.51.64-1.4.64-2.78,0-3.54-.64-6.83-6a22.77,22.77,0,0,0-2.4-3.61c-.26-.19-.82-.32-2.34-.32-.76,0-1.08,0-1.14.13s-.25.38-.25,1.39v3.42c0,3,.44,3.67,2.15,3.86,1.32.19,1.39.19,1.39.5s-.19.32-.82.32H399l-1.4-.13c-.69-.06-1.2-.06-1.77-.06h-.57l-1.39.06h-1.14a.41.41,0,0,1-.38-.31c0-.26.19-.32.95-.51,1.27-.25,1.58-1.58,1.58-6.14,0-.88,0-2-.06-3.35,0-1.52-.06-2.53-.06-3.1l-.13-3.1c-.06-2.15-.32-2.53-1.64-2.78l-.51-.07c-.32-.06-.44-.19-.44-.38s.12-.31.44-.31h.76a8.09,8.09,0,0,1,1.07.06h1.59a17.83,17.83,0,0,0,2.4-.13c.82-.06,1.52-.06,2-.06,3.61,0,6.2,2,6.2,4.87C406.48,8.6,405.16,10.38,402.63,11.64Zm-2.72-.25c2.53,0,4.3-1.58,4.3-3.92,0-2.91-2.47-5-5.82-5-1.27,0-1.52.69-1.52,4,0,.19,0,.83.06,2V9.62c0,1.26.06,1.45.38,1.64A10.19,10.19,0,0,0,399.91,11.39Z"/><path d="M419.9,1.58c2.53,0,7.59-.12,8.29-.12.44,0,.63.56.63,2v.82c0,.63-.13.88-.32.88s-.31-.19-.38-.69c-.06-.95-.57-1.27-1.9-1.39-1-.07-3.1-.13-4.61-.13-1.14,0-1.27.13-1.27,1.9,0,4.43-.06,8.86-.06,13.28,0,2,.57,2.85,1.83,2.85.51,0,.7.13.7.38s-.19.38-.83.38h-2.84c-1.08,0-2.15.06-3.36.06-.25,0-.37-.06-.37-.25s.19-.38.56-.44c2-.19,2.09-.51,2.16-5,.06-3.86.12-7.66.12-11.77,0-1.39-.12-1.39-2.53-1.39-3.67,0-4.81.32-5.19,1.46l-.19.69c-.12.32-.25.44-.38.44s-.19-.06-.19-.25.07-1.07.26-2.66c.12-1,.31-1.2,1.39-1.2s3,.07,4.68.07h3.8v.12Z"/><path d="M442.86,4.11c.13,1.14.32,2.34.32,2.6a.3.3,0,0,1-.32.31c-.25,0-.31-.12-.5-.69-.64-2.28-3.23-3.93-6.14-3.93-2.4,0-3.92,1.33-3.92,3.42,0,1.9.88,2.59,5.5,4.37,3.86,1.39,5.57,3.22,5.57,5.75,0,3.67-2.85,6.14-7.21,6.14a14.22,14.22,0,0,1-4.94-.95c-.5-.19-.57-.25-.82-1.64l-.32-1.27a12.26,12.26,0,0,1-.31-2.15c0-.25.06-.38.25-.38s.25.13.38.51c1.07,3.41,3.16,4.93,6.52,4.93,2.78,0,5-1.77,5-4.11,0-2.09-1.07-3-5.37-4.62s-5.89-3.16-5.89-5.63c0-3,2.91-5.44,6.65-5.44a7.92,7.92,0,0,1,4,.95,1.58,1.58,0,0,0,.51.12.83.83,0,0,0,.44-.19c.13-.06.19-.12.25-.12s.26.06.26.31Z"/><path d="M452.48,21.83c-.25,0-.32-.07-.32-.26s.13-.31.57-.31c.63-.07,1.39-.89,2-2,2.6-5.44,5.25-11,7.91-16.39.63-1.39.89-1.71,1-1.71s.32.32.89,1.84c.38.88,4.55,10.82,6.71,15.94a3.13,3.13,0,0,0,2.65,2.21c.57.13.76.26.76.45s-.38.38-.82.38a31.87,31.87,0,0,0-3.42-.26c-1.14,0-2,.13-2.53.13-.31,0-.5-.13-.5-.32s.25-.38.69-.44.95-.38.95-.82a28.4,28.4,0,0,0-2-5.89c-.19-.31-.26-.44-.83-.44l-7.14.13c-.38,0-.51,0-.57.25-1.4,3.1-2.34,4.87-2.34,5.38,0,.82.44,1.14,2,1.52.25.06.31.12.31.31s-.19.32-.57.32c-.69,0-1.58-.06-2.4-.06A19.67,19.67,0,0,0,452.48,21.83Zm13.29-10.44-2.16-4.87-.57-1c-.06-.19-.19-.31-.25-.31s-.31.31-.69,1.14l-2.66,5.75a3.4,3.4,0,0,0-.13.38c0,.26.25.32.57.32h5.7c.44,0,.56-.06.56-.44v-.19Z"/><path d="M493.86,21.83c0,.25-.07.38-.26.38a.72.72,0,0,1-.5-.19c-3.93-4.5-8.73-10.19-13.35-14.81a.66.66,0,0,0-.32-.19c-.25,0-.32.26-.32,1,0,3.8-.25,8.16-.25,10.82,0,1.52.63,2.21,2,2.28.89,0,.89.19.89.38s-.13.31-.44.31h-3c-1,0-1.77.07-2.28.07-.76,0-.82-.13-.82-.26s.06-.31.38-.38c1.45-.44,2-1.39,2.15-4,.32-4.18.51-8.23.51-9,0-3.16-1-5.38-2.6-5.69L475,2.4a.59.59,0,0,1-.5-.5c0-.19.31-.26.82-.26s1.14.07,2.34.07c.51,0,.63.12,1.2.76,4,4.74,8.23,9.36,13.35,15.12a.56.56,0,0,0,.38.25c.32,0,.32-.32.32-6.83,0-7.34-.38-8.54-2.79-8.73-.57-.07-.69-.07-.69-.32s.12-.25.69-.25h3c.69,0,2.08-.13,2.27-.13.45,0,.64.13.64.32s-.19.31-.51.38c-1,.25-1.45,1-1.45,2.46C494.11,10.5,494,16.2,493.86,21.83Z"/><path d="M499.36,4.74c0-1.58-.7-2.34-2-2.4-.37,0-.56-.13-.56-.32s.19-.38.69-.38c2.66,0,5.25-.31,8-.31,6.2,0,11.89,3.41,11.89,10.12a10.07,10.07,0,0,1-5.12,8.92c-1.84,1.08-3.74,1.46-7.47,1.46-.95,0-2.4-.26-4.49-.26-1.08,0-2.41.13-2.91.13-.25,0-.38-.06-.38-.25s.19-.32.88-.57c1.08-.45,1.4-1.2,1.4-3.23Zm2.21,8.17c0,2,0,4.05.13,6.07.06,1.2,2,1.9,5.12,1.9,2.85,0,4.18-.38,5.64-1.71a8.3,8.3,0,0,0,2.65-6.58c0-6.39-4-10.19-10.75-10.19-2.34,0-2.6.26-2.66,2.6C501.64,7.59,501.57,10.25,501.57,12.91Z"/><path d="M539.66,4.11c.13,1.14.32,2.34.32,2.6a.3.3,0,0,1-.32.31c-.25,0-.32-.12-.51-.69-.63-2.28-3.22-3.93-6.13-3.93-2.41,0-3.93,1.33-3.93,3.42,0,1.9.89,2.59,5.51,4.37,3.86,1.39,5.57,3.22,5.57,5.75,0,3.67-2.85,6.14-7.22,6.14a14.21,14.21,0,0,1-4.93-.95c-.51-.19-.57-.25-.82-1.64l-.32-1.27a12.49,12.49,0,0,1-.32-2.15c0-.25.07-.38.26-.38s.25.13.38.51c1.07,3.41,3.16,4.93,6.51,4.93,2.79,0,5-1.77,5-4.11,0-2.09-1.07-3-5.38-4.62s-5.88-3.16-5.88-5.63c0-3,2.91-5.44,6.64-5.44a8,8,0,0,1,4,.95,1.52,1.52,0,0,0,.5.12.82.82,0,0,0,.45-.19c.12-.06.19-.12.25-.12s.25.06.25.31Z"/><path d="M561.68,5.82c.06.89.25,1.58.25,1.77s-.13.44-.32.44-.44-.25-.82-1.13c-.95-2.41-4.36-4.43-7.65-4.43-5.45,0-8.55,3.35-8.55,9.17a9.33,9.33,0,0,0,9.18,9.62c3.16,0,6.58-1.77,7.53-4,.12-.31.31-.44.44-.44s.19.06.19.32c-.19,1.13-.25,1.45-.51,2.53-.69,1.26-4.87,2.46-8.41,2.46-6.58,0-10.88-3.92-10.88-9.93A10.4,10.4,0,0,1,553,1.52a14.46,14.46,0,0,1,7,1.77,1.61,1.61,0,0,0,.44.13,1,1,0,0,0,.38-.07,1.09,1.09,0,0,1,.44-.06c.19,0,.25.06.25.32Z"/><path d="M567.56,1.77c1.27,0,2-.06,3.23-.06.57,0,.76.06.76.31s-.13.32-.89.51c-.95.25-1.33.76-1.33,2-.12,4.36-.38,8.73-.38,13.79,0,1.83.76,2.59,2.53,2.78.51,0,.7.13.7.44s-.25.26-.76.26c-1.08,0-2.09-.13-3.29-.13-1.39,0-2.72.19-3.42.19-.25,0-.5-.19-.5-.32,0-.31.19-.44.82-.57,1.33-.25,1.45-.5,1.52-2.08.31-5.82.44-10.63.44-14,0-1.58-.51-2.15-2-2.34-.82-.06-.95-.19-.95-.44s.19-.32.7-.32C565.47,1.71,566.55,1.77,567.56,1.77Z"/><path d="M579.52,1.77c3.22,0,6.77-.13,8.22-.25h.63c.51,0,.64.06.64.44a4.58,4.58,0,0,1-.07,1l-.12,1.46c-.13,1-.19,1.14-.51,1.14s-.25-.07-.25-.51c0-1.71-.57-2.09-2.85-2.28s-2.28-.12-2.47-.12c-2.4,0-2.65.06-3,.44s-.32.63-.32,1.58c0,1.77-.06,3.54-.06,5.32,0,.5.57.82,1.46.82,1.2,0,2.46-.06,3.67-.06a2.35,2.35,0,0,0,2.4-1.84.29.29,0,0,1,.32-.25c.25,0,.38.25.38.82,0,.82-.32,1.64-.32,2.53,0,.7.19,1.84.19,2.34,0,.13-.13.19-.25.19s-.38-.19-.45-.69c-.25-1.71-.63-1.84-5.31-1.84-1.33,0-1.71.06-1.9.25s-.19.51-.19,1.71v3.48c.06,2.91.06,3,1.9,3,1,0,2-.07,3.1-.13,2.72-.25,4.93-1,5.88-2.47.07-.06.07-.12.13-.12s.32.12.32.25a1.21,1.21,0,0,1-.13.63,6.69,6.69,0,0,1-1.84,2.66,2.78,2.78,0,0,1-1.89.7c-.26,0-.45,0-1.52-.07-2.53-.19-4.49-.31-6.2-.31s-2.85.25-3.48.25-.76-.06-.76-.32.82-.57,1.14-.63c.82-.25,1-.57,1-1.58q.19-2.94.19-5.88V4.3A2,2,0,0,0,576.61,3a1.75,1.75,0,0,0-.76-.51l-1-.19a.27.27,0,0,1-.25-.25c0-.19.12-.32,1.32-.32Z"/><path d="M611.59,21.83c0,.25-.06.38-.25.38a.76.76,0,0,1-.51-.19c-3.92-4.5-8.73-10.19-13.34-14.81a.66.66,0,0,0-.32-.19c-.25,0-.32.26-.32,1,0,3.8-.25,8.16-.25,10.82,0,1.52.63,2.21,2,2.28.89,0,.89.19.89.38s-.13.31-.45.31h-3c-1,0-1.77.07-2.28.07-.76,0-.82-.13-.82-.26s.06-.31.38-.38c1.45-.44,2-1.39,2.15-4,.31-4.18.5-8.23.5-9,0-3.16-1-5.38-2.59-5.69l-.57-.07a.6.6,0,0,1-.51-.5c0-.19.32-.26.83-.26s1.14.07,2.34.07c.5,0,.63.12,1.2.76,4,4.74,8.22,9.36,13.35,15.12a.54.54,0,0,0,.38.25c.31,0,.31-.32.31-6.83,0-7.34-.38-8.54-2.78-8.73-.57-.07-.7-.07-.7-.32s.13-.25.7-.25h3c.7,0,2.09-.13,2.28-.13.44,0,.63.13.63.32s-.19.31-.5.38c-1,.25-1.46,1-1.46,2.46Q611.89,13.38,611.59,21.83Z"/><path d="M635.19,5.82c.06.89.25,1.58.25,1.77s-.12.44-.31.44-.44-.25-.82-1.13c-.95-2.41-4.37-4.43-7.66-4.43-5.44,0-8.54,3.35-8.54,9.17a9.33,9.33,0,0,0,9.17,9.62c3.17,0,6.58-1.77,7.53-4,.13-.31.32-.44.45-.44s.18.06.18.32c-.18,1.13-.25,1.45-.5,2.53-.7,1.26-4.87,2.46-8.42,2.46-6.58,0-10.88-3.92-10.88-9.93A10.4,10.4,0,0,1,626.46,1.52a14.41,14.41,0,0,1,7,1.77,1.83,1.83,0,0,0,.44.13,1,1,0,0,0,.38-.07,1.17,1.17,0,0,1,.45-.06c.19,0,.25.06.25.32Z"/><path d="M641.77,1.77c3.23,0,6.77-.13,8.23-.25h.63c.5,0,.63.06.63.44a5.33,5.33,0,0,1-.06,1L651,4.49c-.13,1-.19,1.14-.51,1.14s-.25-.06-.25-.51c0-1.7-.57-2.08-2.85-2.27s-2.28-.13-2.47-.13c-2.4,0-2.65.06-3,.44s-.32.64-.32,1.58c0,1.78-.06,3.55-.06,5.32,0,.51.57.82,1.46.82,1.2,0,2.46-.06,3.67-.06A2.35,2.35,0,0,0,649.11,9a.3.3,0,0,1,.32-.25c.25,0,.38.25.38.82,0,.83-.32,1.65-.32,2.53,0,.7.19,1.84.19,2.34,0,.13-.13.19-.25.19s-.38-.19-.45-.69c-.25-1.71-.63-1.84-5.31-1.84-1.33,0-1.71.07-1.9.26s-.19.5-.19,1.71v3.47c.06,2.91.06,3,1.9,3,1,0,2-.06,3.1-.13,2.72-.25,4.93-1,5.88-2.46.07-.07.07-.13.13-.13s.32.13.32.25a1.26,1.26,0,0,1-.13.64,6.66,6.66,0,0,1-1.84,2.65,2.74,2.74,0,0,1-1.89.7c-.26,0-.45,0-1.52-.06-2.53-.19-4.49-.32-6.2-.32s-2.85.25-3.48.25-.76-.06-.76-.31.82-.57,1.14-.64c.82-.25.95-.57,1-1.58q.19-2.94.19-5.88V4.37a2,2,0,0,0-.63-1.27,2,2,0,0,0-.76-.51l-.95-.19a.26.26,0,0,1-.25-.25c0-.19.12-.32,1.33-.32C638.54,1.77,640.82,1.77,641.77,1.77Z"/><path d="M667.52,4.11c.13,1.14.32,2.34.32,2.6a.3.3,0,0,1-.32.31c-.25,0-.32-.12-.51-.69-.63-2.28-3.22-3.93-6.13-3.93-2.41,0-3.92,1.33-3.92,3.42,0,1.9.88,2.59,5.5,4.37,3.86,1.39,5.57,3.22,5.57,5.75,0,3.67-2.85,6.14-7.22,6.14a14.21,14.21,0,0,1-4.93-.95c-.51-.19-.57-.25-.82-1.64l-.32-1.27a12.49,12.49,0,0,1-.32-2.15c0-.25.07-.38.26-.38s.25.13.38.51c1.07,3.41,3.16,4.93,6.51,4.93,2.79,0,5-1.77,5-4.11,0-2.09-1.07-3-5.38-4.62s-5.88-3.16-5.88-5.63c0-3,2.91-5.44,6.64-5.44a8,8,0,0,1,4,.95,1.58,1.58,0,0,0,.51.12.83.83,0,0,0,.44-.19c.12-.06.19-.12.25-.12s.25.06.25.31Z"/></g><path d="M60,1.77c3.23,0,6.77-.13,8.22-.25h.64c.5,0,.63.06.63.44a5.33,5.33,0,0,1-.06,1l-.13,1.46c-.13,1-.19,1.14-.51,1.14s-.25-.07-.25-.51c0-1.71-.57-2.09-2.85-2.28s-2.27-.12-2.46-.12c-2.41,0-2.66.06-3,.44S60,3.73,60,4.68c0,1.77-.07,3.54-.07,5.32,0,.5.57.82,1.46.82,1.2,0,2.47-.06,3.67-.06a2.35,2.35,0,0,0,2.4-1.84.27.27,0,0,1,.25-.25c.26,0,.38.25.38.82,0,.82-.31,1.64-.31,2.53,0,.7.19,1.84.19,2.34,0,.13-.13.19-.26.19s-.37-.19-.44-.69c-.31-1.71-.63-1.84-5.31-1.84-1.33,0-1.71.06-1.9.25s-.13.57-.13,1.78v3.47c.07,2.91.07,3,1.9,3,1,0,2-.06,3.1-.13,2.72-.25,4.94-1,5.88-2.46.07-.07.07-.13.13-.13s.25.13.25.25a1.35,1.35,0,0,1-.12.64,6.66,6.66,0,0,1-1.84,2.65,2.75,2.75,0,0,1-1.89.7c-.26,0-.45,0-1.52-.06-2.53-.19-4.5-.32-6.2-.32s-2.85.25-3.48.25-.76-.06-.76-.31.82-.57,1.14-.64c.82-.25,1-.57,1-1.58q.2-2.94.19-5.88V4.37a2,2,0,0,0-.63-1.27,2,2,0,0,0-.76-.51l-1-.19a.27.27,0,0,1-.26-.25c0-.19.13-.32,1.33-.32C56.75,1.77,59.09,1.77,60,1.77Z"/><path d="M85.16,18.09c5.12-8.85,6.26-10.94,7.65-14.23a8.2,8.2,0,0,1,.57-1.14A6.25,6.25,0,0,0,93.7,2a.66.66,0,0,1,.12-.25c.07-.06.19-.06.38-.06h.64c.38,0,.88,0,1.64.06h.76c.19,0,.25.13.25.38s0,.25-.38.32l-.38.06c-1.32.25-1.45.51-1.51,2.66l-.13,3.16.19,4.37.06,3.86c.07,3.16.32,4,1.14,4.23l.76.19.44.13h.26a.33.33,0,0,1,.25.19.5.5,0,0,1,.13.25c0,.19-.26.38-.57.38h-.57l-1.84-.12H94.2c-.25,0-.63,0-1.33.06a4.44,4.44,0,0,1-.75.06H91.8a.44.44,0,0,1-.38-.19c-.13-.12-.19-.19-.19-.25s.19-.32.51-.38c1.32-.25,1.45-.57,1.45-3.35v-.63c0-1.65-.06-2.85-.06-3.55l-.26-3.54L92.81,8l-.13-1a5.36,5.36,0,0,0-.75,1.14C91,9.93,89.65,12.34,88.7,14c-1.39,2.41-2.22,4-2.53,4.56-1.14,2.15-1.65,3-1.84,3s-.31-.25-.63-.88c-.13-.32-.32-.7-.51-1.08l-2.4-4.36-2.4-4.75-1.08-2L76.74,7.4l-.06,1.08c0,.19-.06.95-.13,2.28l-.19,4.55L76.3,18v.44c0,1.65.51,2.28,2.21,2.66.32.06.51.19.51.38s-.25.38-.7.38h-.25c-.19,0-.57-.07-1.08-.07s-1-.06-1.26-.06h-.25a7.34,7.34,0,0,0-1.21.06l-1,.13h-.19c-.38,0-.63-.13-.63-.38,0-.06,0-.13.19-.19,2.34-.51,2.59-1.52,2.78-11.45l.07-3.1V6.58c0-2.28-.89-3.61-2.53-4-.32-.06-.51-.12-.57-.12a.68.68,0,0,1-.45-.32A1.41,1.41,0,0,1,72.12,2c.07-.06.13-.06.26-.06h2.34L75.86,2h.38c.38,0,.5.07.63.38s.31.64,1.2,2.47c1.27,2.72,1.71,3.67,3.86,7.53.63,1.14,1.14,2.09,1.45,2.78a20.33,20.33,0,0,0,1.33,2.53C84.84,17.59,85,17.78,85.16,18.09Z"/><path d="M109.39,22.14c-6.52,0-10.88-4.05-10.88-10.06,0-6.2,4.68-10.56,11.26-10.56,6.2,0,10.44,4.17,10.44,10.37C120.14,17.9,116,22.14,109.39,22.14Zm.63-.95c4.81,0,7.65-3,7.65-8.22,0-5.82-4.17-10.63-9.17-10.63-4.43,0-7.72,3.48-7.72,8.23C100.78,16.58,104.83,21.19,110,21.19Z"/><path d="M131.09,11.64a12.06,12.06,0,0,0,.82,1.33c.44.76.82,1.33,1.08,1.71l1.7,2.47c2.28,3.28,3.23,4.23,4.24,4.23h.32c.19,0,.32.07.32.19,0,.38-.51.64-1.4.64-2.78,0-3.54-.64-6.83-6a22.77,22.77,0,0,0-2.4-3.61,4.87,4.87,0,0,0-2.34-.32c-.76,0-1.08,0-1.14.13s-.26.38-.26,1.39v3.42c0,3,.45,3.67,2.15,3.86,1.33.19,1.4.19,1.4.5s-.19.32-.83.32h-.57L126,21.76c-.69-.06-1.2-.06-1.77-.06h-.57l-1.39.06h-1.14a.41.41,0,0,1-.38-.31c0-.26.19-.32,1-.51,1.27-.25,1.58-1.58,1.58-6.14,0-.88,0-2-.06-3.35,0-1.52-.06-2.53-.06-3.1l-.19-3.1c-.07-2.15-.32-2.53-1.65-2.78l-.51-.07c-.31-.06-.44-.19-.44-.38s.13-.31.44-.31h.76a8.22,8.22,0,0,1,1.08.06h1.58a18,18,0,0,0,2.41-.13c.88-.06,1.51-.06,2-.06,3.61,0,6.2,2,6.2,4.87C135,8.6,133.62,10.38,131.09,11.64Zm-2.72-.25c2.59,0,4.3-1.58,4.3-3.92,0-2.91-2.47-5-5.82-5-1.27,0-1.52.69-1.52,4,0,.19,0,.83.06,2V9.62c0,1.26.07,1.45.38,1.64A10.19,10.19,0,0,0,128.37,11.39Z"/><path d="M143.11,1.77c.25,0,.44.06.44.25s-.19.38-.76.45-.76.25-.76.69a2.28,2.28,0,0,0,.26.7c.19.32,2.15,3.16,4.49,6.45.06.07.12.19.25.19s.25-.06.38-.31L151,4.81a2.51,2.51,0,0,0,.45-1.27c0-.57-.32-.88-1-1.07-.95-.19-1.33-.38-1.33-.57s.13-.32,1-.32,1.58.13,2.27.13c.95,0,1.9-.19,2.92-.19.37,0,.69.12.69.31s-.13.32-.88.51-1.9,1.2-2.91,2.78l-4.31,6.52a1.67,1.67,0,0,0-.31,1.08v3.86a26.12,26.12,0,0,0,.06,3.29c.19,1.13.7,1.07,2,1.13.57.07.63.07.63.32s-.12.32-.5.32c-.95,0-2-.07-3.17-.07a9.88,9.88,0,0,0-1.7.19,11,11,0,0,1-1.71.13c-.38,0-.51-.06-.51-.32s.13-.38.44-.38a1.83,1.83,0,0,0,2.09-1.64c0-.25.07-2,.07-4.18V12.78a1.62,1.62,0,0,0-.26-.89l-5.12-7.78A4,4,0,0,0,137,2.34c-.57-.06-.76-.13-.76-.44s.13-.44.51-.44c.57,0,1.14.12,1.71.12s1.2.06,1.83.06A12,12,0,0,0,143.11,1.77Z"/><rect x="167.78" y="0.89" width="0.63" height="22.02"/></g></svg>